<svg xmlns="http://www.w3.org/2000/svg" xmlns:xlink="http://www.w3.org/1999/xlink" viewBox="0 0 602 601.04"><defs><style>.cls-1{fill:#d0a825;}.cls-2{fill:none;}.cls-2,.cls-3,.cls-4{stroke:#000;}.cls-2,.cls-3{stroke-miterlimit:10;stroke-width:3px;}.cls-4{stroke-linejoin:bevel;}.cls-5{font-size:60px;letter-spacing:0.05em;}.cls-5,.cls-6{font-family:MonotypeCorsiva, Monotype Corsiva;}.cls-6{font-size:14px;letter-spacing:0.05em;}</style></defs><g id="Слой_1" data-name="Слой 1"><image width="628" height="627" transform="translate(0 0) scale(0.96)" xlink:href="../%D1%8D%D1%81%D0%BA%D0%B8%D0%B7.png"/></g><g id="фон"><rect class="cls-1" x="1" y="0.84" width="600" height="600"/></g><g id="обводка"><path class="cls-2" d="M173.36,120.15v13.78" transform="translate(1 0.84)"/><path class="cls-3" d="M173.36,245.74q-.54-47.61,0-96.13V119.5" transform="translate(1 0.84)"/><path class="cls-2" d="M425.63,118.46h-36" transform="translate(1 0.84)"/><path class="cls-3" d="M171,118.39q129.11-.56,257,0" transform="translate(1 0.84)"/><path class="cls-3" d="M426.36,118.24V246.42" transform="translate(1 0.84)"/><path class="cls-3" d="M173.36,357.56c-.36,43.44-.36,85.44,0,128" transform="translate(1 0.84)"/><path class="cls-3" d="M172,485.29H428" transform="translate(1 0.84)"/><path class="cls-2" d="M426.36,358.23" transform="translate(1 0.84)"/><path class="cls-3" d="M426.36,358.23V485.07" transform="translate(1 0.84)"/><path class="cls-2" d="M384.92,425.46h-6.29" transform="translate(1 0.84)"/><path class="cls-3" d="M211.8,425.46c57.2-.46,115.2-.46,172.12,0" transform="translate(1 0.84)"/><rect class="cls-4" x="268.5" y="173.34" width="6" height="40"/><polygon class="cls-4" points="297.5 213.34 291.5 213.34 293.5 173.34 299.5 173.34 297.5 213.34"/><rect class="cls-4" x="302.5" y="173.34" width="6" height="40"/><rect class="cls-4" x="325.5" y="173.34" width="6" height="40"/><rect class="cls-4" x="310.5" y="173.34" width="11" height="40"/><polygon class="cls-4" points="289.5 213.34 283.5 213.34 278.5 173.34 284.5 173.34 289.5 213.34"/></g><g id="текст"><text class="cls-5" transform="translate(198.33 293.98)">Heritage <tspan x="41.98" y="60">Book</tspan></text><text class="cls-6" transform="translate(264.73 455.09)">SINCE 2020</text></g></svg>