<svg xmlns="http://www.w3.org/2000/svg" xmlns:xlink="http://www.w3.org/1999/xlink" viewBox="0 0 2324.78 1439.5"><defs><style>.cls-1{fill:none;}.cls-2{clip-path:url(#clip-path);}.cls-3{stroke:#000;fill:url(#Безымянный_градиент_66);}.cls-3,.cls-6{stroke-miterlimit:10;}.cls-4{fill:#fff;}.cls-5{clip-path:url(#clip-path-2);}.cls-6{fill:url(#Безымянный_градиент_56);stroke:url(#Безымянный_градиент_32);}.cls-7{fill:url(#Безымянный_градиент_32-2);}</style><clipPath id="clip-path" transform="translate(286.27 -178.01)"><rect class="cls-1" x="183.98" y="178.51" width="684" height="684" rx="162"/></clipPath><radialGradient id="Безымянный_градиент_66" cx="648.5" cy="648.5" r="648" gradientUnits="userSpaceOnUse"><stop offset="0" stop-color="#ffd96f"/><stop offset="0.25" stop-color="#f6aa64"/><stop offset="0.38" stop-color="#e84f30"/><stop offset="0.7" stop-color="#c4237d"/><stop offset="1" stop-color="#6269ae"/></radialGradient><clipPath id="clip-path-2" transform="translate(286.27 -178.01)"><rect class="cls-1" x="1299.44" y="178.51" width="684" height="684" rx="162"/></clipPath><linearGradient id="Безымянный_градиент_56" x1="1660.57" y1="24.14" x2="2194.85" y2="660.86" gradientUnits="userSpaceOnUse"><stop offset="0.05" stop-color="#415ae6"/><stop offset="1" stop-color="#fa1e1e"/></linearGradient><radialGradient id="Безымянный_градиент_32" cx="1927.71" cy="342.5" r="342.5" gradientUnits="userSpaceOnUse"><stop offset="0" stop-color="#fac864"/><stop offset="0.5" stop-color="#fa7837"/><stop offset="1" stop-color="#f6aa64" stop-opacity="0"/></radialGradient><radialGradient id="Безымянный_градиент_32-2" cx="1676.78" cy="791.5" r="648" xlink:href="#Безымянный_градиент_32"/></defs><g id="First_logo" data-name="First logo"><g class="cls-2"><rect class="cls-3" x="0.5" y="0.5" width="1296" height="1296" rx="162"/></g><path class="cls-4" d="M630.38,321.51a94.71,94.71,0,0,1,94.6,94.6v208.8a94.7,94.7,0,0,1-94.6,94.6H421.58a94.7,94.7,0,0,1-94.6-94.6V416.11a94.71,94.71,0,0,1,94.6-94.6h208.8m0-35H421.58A129.6,129.6,0,0,0,292,416.11v208.8a129.6,129.6,0,0,0,129.6,129.6h208.8A129.6,129.6,0,0,0,760,624.91V416.11a129.6,129.6,0,0,0-129.6-129.6Z" transform="translate(286.27 -178.01)"/><path class="cls-4" d="M526,435.91a84.6,84.6,0,1,1-84.6,84.6,84.69,84.69,0,0,1,84.6-84.6m0-45a129.6,129.6,0,1,0,129.6,129.6A129.6,129.6,0,0,0,526,390.91Z" transform="translate(286.27 -178.01)"/><circle class="cls-4" cx="941.85" cy="212.9" r="30.6"/></g><g id="Second_logo" data-name="Second logo"><g class="cls-5"><rect class="cls-6" x="1585.71" y="0.5" width="684" height="684" rx="162"/><rect class="cls-7" x="1028.78" y="143.5" width="1296" height="1296" rx="162"/></g><path class="cls-4" d="M1745.84,321.51a94.7,94.7,0,0,1,94.6,94.6v208.8a94.7,94.7,0,0,1-94.6,94.6H1537a94.7,94.7,0,0,1-94.6-94.6V416.11a94.71,94.71,0,0,1,94.6-94.6h208.8m0-35H1537a129.61,129.61,0,0,0-129.6,129.6v208.8A129.6,129.6,0,0,0,1537,754.51h208.8a129.6,129.6,0,0,0,129.6-129.6V416.11a129.6,129.6,0,0,0-129.6-129.6Z" transform="translate(286.27 -178.01)"/><path class="cls-4" d="M1641.44,435.91a84.6,84.6,0,1,1-84.6,84.6,84.69,84.69,0,0,1,84.6-84.6m0-45A129.6,129.6,0,1,0,1771,520.51a129.61,129.61,0,0,0-129.6-129.6Z" transform="translate(286.27 -178.01)"/><circle class="cls-4" cx="2057.31" cy="212.9" r="30.6"/></g></svg>